<?xml version="1.0" standalone="no"?>
<!DOCTYPE svg PUBLIC "-//W3C//DTD SVG 20010904//EN"
 "http://www.w3.org/TR/2001/REC-SVG-20010904/DTD/svg10.dtd">
<svg version="1.0" xmlns="http://www.w3.org/2000/svg"
 width="200.000000pt" height="200.000000pt" viewBox="0 0 200.000000 200.000000"
 preserveAspectRatio="xMidYMid meet">

<g transform="translate(0.000000,200.000000) scale(0.100000,-0.100000)"
fill="#000000" stroke="none">
<path d="M914 1727 c-26 -23 -37 -43 -41 -73 l-5 -40 -202 -101 -201 -100 -35
18 c-42 23 -69 24 -115 5 -66 -28 -95 -119 -59 -187 18 -36 91 -72 126 -64 20
4 31 -7 86 -90 l63 -96 -63 -92 c-58 -85 -66 -91 -98 -93 -19 0 -50 -8 -67
-18 -89 -45 -81 -193 12 -232 45 -19 63 -18 109 5 l38 20 203 -101 203 -102 5
-40 c4 -30 15 -50 41 -73 30 -28 43 -33 86 -33 43 0 56 5 86 33 26 23 37 43
41 73 l5 40 202 100 201 101 48 -21 c44 -18 51 -19 90 -6 76 27 110 117 71
191 -18 36 -91 72 -126 64 -20 -4 -31 7 -86 90 l-62 95 62 95 c55 83 66 94 86
90 35 -8 108 28 126 64 36 68 7 159 -59 187 -46 19 -73 18 -115 -5 l-35 -18
-201 100 -202 101 -5 40 c-4 30 -15 50 -41 73 -30 28 -43 33 -86 33 -43 0 -56
-5 -86 -33z m120 -63 c23 -23 20 -51 -9 -70 -23 -15 -27 -15 -50 0 -14 9 -25
25 -25 36 0 24 26 50 50 50 10 0 26 -7 34 -16z m-263 -303 l-101 -151 -85 42
c-125 62 -124 64 98 175 100 50 183 89 185 88 2 -2 -42 -71 -97 -154z m729
-46 c0 -16 -20 -30 -85 -63 l-85 -42 -100 150 c-55 82 -100 152 -100 155 0 3
83 -37 185 -87 149 -75 185 -97 185 -113z m-357 25 c59 -88 107 -162 107 -165
0 -3 -35 -22 -77 -43 l-78 -39 -30 18 c-38 24 -92 24 -130 0 l-30 -18 -77 39
c-43 21 -78 40 -78 43 0 3 48 77 107 165 146 220 140 220 286 0z m-733 0 c6
-12 8 -30 5 -40 -7 -24 -52 -37 -74 -23 -20 13 -26 50 -11 69 19 21 67 18 80
-6z m1260 6 c15 -19 9 -56 -11 -69 -9 -5 -28 -7 -42 -3 -52 13 -42 86 12 86
16 0 34 -7 41 -14z m-1107 -172 c29 -15 54 -28 55 -30 5 -4 -31 -64 -38 -64
-3 0 -14 15 -26 33 -11 17 -29 44 -38 60 -22 33 -18 34 47 1z m921 -1 c-9 -16
-27 -43 -38 -60 -12 -18 -23 -33 -26 -33 -7 0 -43 60 -38 64 8 8 104 55 112
56 4 0 0 -12 -10 -27z m-694 -113 c106 -53 106 -67 0 -120 -44 -22 -83 -40
-87 -40 -5 0 -23 23 -41 50 l-32 50 32 50 c18 27 36 50 41 50 4 0 43 -18 87
-40z m548 -10 l32 -50 -32 -50 c-18 -27 -36 -50 -41 -50 -4 0 -43 18 -87 40
-106 53 -106 67 -2 119 42 22 82 40 87 40 6 0 25 -22 43 -49z m-306 -17 c22
-20 23 -41 1 -65 -20 -22 -41 -23 -65 -1 -22 20 -23 41 -1 65 20 22 41 23 65
1z m-428 -144 c10 -17 16 -32 14 -33 -10 -10 -111 -57 -113 -54 -5 5 68 118
75 118 3 0 14 -14 24 -31z m858 -26 c20 -32 35 -59 33 -61 -2 -3 -103 44 -113
54 -5 4 31 64 38 64 3 0 22 -26 42 -57z m-462 7 c19 0 49 8 65 19 l30 18 78
-39 c42 -21 77 -40 77 -43 0 -3 -48 -77 -107 -165 -105 -158 -107 -160 -143
-160 -36 0 -38 2 -143 160 -59 88 -107 162 -107 165 0 3 35 22 77 44 l77 38
31 -18 c16 -11 46 -19 65 -19z m-230 -230 c55 -82 100 -152 100 -155 0 -3 -83
37 -185 87 -223 112 -224 114 -102 175 45 23 83 42 84 42 2 1 48 -66 103 -149z
m730 45 c0 -16 -36 -38 -185 -113 -102 -50 -185 -90 -185 -87 0 3 45 73 100
155 l100 150 85 -42 c65 -33 85 -47 85 -63z m-1096 29 c30 -29 10 -74 -32 -74
-33 0 -52 16 -52 45 0 43 53 61 84 29z m1264 4 c7 -7 12 -21 12 -33 0 -29 -19
-45 -52 -45 -25 0 -48 23 -48 49 0 33 63 54 88 29z m-638 -316 c43 -35 4 -94
-50 -77 -32 10 -38 55 -10 77 12 10 26 18 30 18 4 0 18 -8 30 -18z"/>
</g>
</svg>
